#!OML:ASF F:\VICON\USERDATA\INSTALL\rory3\rory3.ASF
:FULLY-SPECIFIED
:DEGREES
1167
root -1.58063 18.3669 5.3639 174.857 177.369 -177.647
lowerback 9.30842 1.28833 -1.03788
upperback 2.18414 1.59864 -0.447196
thorax -2.9651 0.801433 -0.0660117
lowerneck -6.60843 0.279228 -8.94238
upperneck 26.9231 0.257963 6.60278
head 9.5086 -0.0474312 3.88242
rclavicle -1.34801e-015 -1.13307e-014
rhumerus -29.3305 3.06469 -77.376
rradius 38.194
rwrist 15.743
rhand -28.3904 5.01971
rfingers 7.12502
rthumb -1.76298 -24.9527
lclavicle -1.34801e-015 -1.13307e-014
lhumerus -38.6256 23.1185 69.4881
lradius 22.764
lwrist -9.16803
lhand -19.2621 23.8832
lfingers 7.12502
lthumb 7.05218 53.7458
rfemur -9.70518 14.8275 23.098
rtibia 36.0309
rfoot -17.8287 -7.46295
rtoes -0.148535
lfemur -27.1892 16.1599 -21.5421
ltibia 81.7168
lfoot -13.9734 20.3556
ltoes 14.1836
1168
root -1.57252 18.3842 5.39753 174.879 177.633 -177.428
lowerback 9.40531 1.3322 -1.27027
upperback 2.12168 1.62942 -0.522037
thorax -3.08788 0.818497 -0.0199399
lowerneck -6.60166 0.250947 -8.92266
upperneck 26.7369 0.206363 6.63778
head 9.44487 -0.0639571 3.88022
rclavicle -1.39087e-014 6.95746e-016
rhumerus -29.6699 2.98228 -77.4349
rradius 38.5444
rwrist 15.3611
rhand -28.2047 4.67161
rfingers 7.12502
rthumb -1.58362 -25.3023
lclavicle -1.39087e-014 6.95746e-016
lhumerus -38.652 22.868 69.7381
lradius 22.8897
lwrist -8.60079
lhand -19.3731 24.1401
lfingers 7.12502
lthumb 6.945 54.0062
rfemur -9.44263 15.1317 22.9081
rtibia 35.7393
rfoot -17.7495 -7.56923
rtoes -0.597481
lfemur -27.0165 15.9559 -21.5913
ltibia 80.5462
lfoot -14.0558 20.7858
ltoes 13.9545
1169
root -1.56257 18.4016 5.43446 174.97 177.889 -177.305
lowerback 9.31602 1.34039 -1.42726
upperback 2.08986 1.62555 -0.54335
thorax -3.07507 0.817672 0.0482948
lowerneck -6.61116 0.264629 -8.91683
upperneck 26.5022 0.223132 6.65563
head 9.36124 -0.0509451 3.87932
rclavicle 1.97045e-014 -1.16289e-014
rhumerus -29.8849 3.11082 -77.4961
rradius 38.7623
rwrist 14.9191
rhand -28.3368 4.49071
rfingers 7.12502
rthumb -1.71119 -25.4822
lclavicle 1.97045e-014 -1.16289e-014
lhumerus -38.6848 22.7801 69.9544
lradius 23.0046
lwrist -7.95929
lhand -19.5847 23.9356
lfingers 7.12502
lthumb 6.74078 53.8083
rfemur -9.21537 15.4272 22.7847
rtibia 35.3956
rfoot -17.7384 -7.5958
rtoes -0.894723
lfemur -26.9098 15.7431 -21.511
ltibia 79.3694
lfoot -14.1613 21.0941
ltoes 14.5687
1170
root -1.55141 18.4156 5.46906 175.089 178.095 -177.318
lowerback 9.24985 1.32209 -1.44685
upperback 2.01052 1.6 -0.5317
thorax -3.12122 0.805539 0.0747442
lowerneck -6.70124 0.312905 -8.84047
upperneck 26.4281 0.296564 6.61392
head 9.34579 -0.0120643 3.85664
rclavicle -9.13167e-016 1.15295e-014
rhumerus -30.1169 3.25737 -77.5608
rradius 38.9215
rwrist 14.4783
rhand -28.2775 4.33952
rfingers 7.12502
rthumb -1.65391 -25.6338
lclavicle -9.13167e-016 1.15295e-014
lhumerus -38.7039 22.7489 70.0929
lradius 23.0725
lwrist -7.43215
lhand -19.7894 23.6173
lfingers 7.12502
lthumb 6.54311 53.4962
rfemur -8.98539 15.6296 22.7964
rtibia 34.9808
rfoot -17.706 -7.65696
rtoes -1.46491
lfemur -26.8488 15.4733 -21.2946
ltibia 78.1932
lfoot -14.3439 21.2419
ltoes 15.3884
1171
root -1.53737 18.437 5.50537 175.226 178.348 -177.32
lowerback 9.16432 1.32716 -1.41925
upperback 1.93411 1.60938 -0.550433
thorax -3.15188 0.810268 0.0396652
lowerneck -6.79158 0.34485 -8.77108
upperneck 26.3057 0.346 6.58452
head 9.31535 0.0169343 3.83579
rclavicle 1.22315e-014 -1.14301e-014
rhumerus -30.3059 3.38039 -77.6574
rradius 38.9926
rwrist 14.1115
rhand -28.3583 4.35621
rfingers 7.12502
rthumb -1.73199 -25.6165
lclavicle 1.22315e-014 -1.14301e-014
lhumerus -38.7149 22.7129 70.2109
lradius 23.2766
lwrist -6.96896
lhand -19.6876 23.8965
lfingers 7.12502
lthumb 6.64135 53.7724
rfemur -8.75683 15.8126 22.7744
rtibia 34.5149
rfoot -17.6092 -7.63929
rtoes -1.7615
lfemur -26.7307 15.2365 -21.1005
ltibia 76.9824
lfoot -14.5748 21.1777
ltoes 16.3872
1172
root -1.52121 18.4585 5.5454 175.339 178.637 -177.423
lowerback 9.12424 1.33078 -1.23519
upperback 1.82866 1.63076 -0.561135
thorax -3.23384 0.819794 -0.0778963
lowerneck -6.83228 0.366303 -8.7302
upperneck 26.1796 0.369209 6.60208
head 9.27599 0.0351971 3.83332
rclavicle 1.10139e-014 -3.47873e-015
rhumerus -30.6029 3.42682 -77.766
rradius 39.0208
rwrist 13.9771
rhand -28.3386 4.28973
rfingers 7.12502
rthumb -1.71292 -25.6831
lclavicle 1.10139e-014 -3.47873e-015
lhumerus -38.8355 22.7546 70.2245
lradius 23.5391
lwrist -6.63297
lhand -19.3013 24.2002
lfingers 7.12502
lthumb 7.01434 54.064
rfemur -8.45962 16.0893 22.8641
rtibia 33.9855
rfoot -17.5235 -7.62818
rtoes -1.55247
lfemur -26.5511 15.0224 -20.7546
ltibia 75.7612
lfoot -14.5916 21.1118
ltoes 16.647
1173
root -1.50878 18.4709 5.58066 175.57 178.933 -177.79
lowerback 8.95962 1.29671 -0.855997
upperback 1.69502 1.62616 -0.465171
thorax -3.2733 0.814634 -0.188983
lowerneck -6.80995 0.428879 -8.76509
upperneck 25.9708 0.448241 6.66336
head 9.18992 0.0772106 3.86094
rclavicle -1.48716e-014 -1.49089e-015
rhumerus -30.9013 3.4873 -77.8456
rradius 39.0522
rwrist 13.9709
rhand -28.2156 4.19397
rfingers 7.12502
rthumb -1.59413 -25.7798
lclavicle -1.48716e-014 -1.49089e-015
lhumerus -38.9196 22.6237 70.3718
lradius 23.7441
lwrist -5.97106
lhand -19.1855 24.5573
lfingers 7.12502
lthumb 7.12611 54.4173
rfemur -8.30125 16.4312 23.2441
rtibia 33.4064
rfoot -17.3892 -7.77156
rtoes -1.75208
lfemur -26.6164 14.8508 -20.102
ltibia 74.5983
lfoot -14.5507 20.9383
ltoes 15.0646
1174
root -1.4948 18.4841 5.61895 175.712 179.205 -178.178
lowerback 8.81998 1.27664 -0.426434
upperback 1.61394 1.64358 -0.384836
thorax -3.27017 0.819427 -0.346867
lowerneck -6.71721 0.457582 -8.70942
upperneck 25.6433 0.493886 6.59202
head 9.05442 0.099664 3.8186
rclavicle -7.0258e-015 -1.00386e-014
rhumerus -31.1659 3.42492 -77.9087
rradius 39.0202
rwrist 14.1502
rhand -28.1668 4.39174
rfingers 7.12502
rthumb -1.54698 -25.5824
lclavicle -7.0258e-015 -1.00386e-014
lhumerus -38.8643 22.3865 70.5905
lradius 23.8504
lwrist -5.22147
lhand -19.0203 24.9102
lfingers 7.12502
lthumb 7.28551 54.7647
rfemur -7.99136 16.6375 23.6546
rtibia 32.7708
rfoot -17.1934 -7.81816
rtoes -2.07398
lfemur -26.5678 14.6911 -19.395
ltibia 73.4283
lfoot -14.533 20.8033
ltoes 12.2947
1175
root -1.47543 18.5017 5.66429 175.863 179.481 -178.345
lowerback 8.60109 1.30047 -0.161783
upperback 1.55572 1.70172 -0.356631
thorax -3.20188 0.845941 -0.468212
lowerneck -6.64533 0.458267 -8.76516
upperneck 25.3692 0.505429 6.57844
head 8.94444 0.101241 3.81491
rclavicle -1.72384e-014 1.45113e-014
rhumerus -31.347 3.40404 -77.9227
rradius 38.896
rwrist 14.2005
rhand -28.051 4.62089
rfingers 7.12502
rthumb -1.43521 -25.354
lclavicle -1.72384e-014 1.45113e-014
lhumerus -38.8405 22.1439 70.8507
lradius 24.1386
lwrist -4.60259
lhand -18.901 25.3389
lfingers 7.12502
lthumb 7.40076 55.1895
rfemur -7.64901 16.7649 23.7809
rtibia 32.1422
rfoot -17.0788 -7.71605
rtoes -2.12945
lfemur -26.3672 14.4654 -18.9435
ltibia 72.1604
lfoot -14.574 20.829
ltoes 12.5739
1176
root -1.45721 18.5204 5.70627 176.085 179.771 -178.547
lowerback 8.31125 1.31976 0.100305
upperback 1.50071 1.75324 -0.307043
thorax -3.09106 0.869514 -0.563026
lowerneck -6.69357 0.486219 -8.89851
upperneck 25.1607 0.545856 6.69395
head 8.87557 0.122694 3.87571
rclavicle 4.67765e-015 6.55989e-015
rhumerus -31.5327 3.54038 -77.9574
rradius 38.8575
rwrist 14.1562
rhand -28.0641 4.66818
rfingers 7.12502
rthumb -1.4478 -25.3067
lclavicle 4.67765e-015 6.55989e-015
lhumerus -38.8628 22.1157 70.9485
lradius 24.4712
lwrist -4.47372
lhand -18.9789 25.3123
lfingers 7.12502
lthumb 7.32547 55.1655
rfemur -7.43254 17.0161 23.937
rtibia 31.5276
rfoot -16.944 -7.70768
rtoes -2.17475
lfemur -26.2311 14.2184 -18.4535
ltibia 70.8481
lfoot -14.5965 20.7486
ltoes 13.6563
